# AST/ASF file generated using VICON BodyLanguage
# -----------------------------------------------
:version 1.10
:name VICON
:units
  mass 1.0
  length 0.45
  angle deg
:documentation
   .ast/.asf automatically generated from VICON data using
   VICON BodyBuilder and BodyLanguage model FoxedUp or BRILLIANT.MOD
:root
   order TX TY TZ RX RY RZ
   axis XYZ
   position 0 0 0  
   orientation 0 0 0 
:bonedata
  begin
     id 1 
     name lhipjoint
     direction 0.646657 -0.683706 0.338203 
     length 2.4948 
     axis 0 0 0  XYZ
  end
  begin
     id 2 
     name lfemur
     direction 0.34202 -0.939693 0  
     length 6.79491  
     axis 0 0 20  XYZ
    dof rx ry rz
    limits (-160.0 20.0)
           (-70.0 70.0)
           (-60.0 70.0)
  end
  begin
     id 3 
     name ltibia
     direction 0.34202 -0.939693 0   
     length 7.56807   
     axis 0 0 20   XYZ
    dof rx
    limits (-10.0 170.0)
  end
  begin
     id 4 
     name lfoot
     direction 0.0679796 -0.186772 0.980048   
     length 2.53018   
     axis -90 7.62852e-016 20   XYZ
    dof rx rz
    limits (-45.0 90.0)
           (-70.0 20.0)
  end
  begin
     id 5 
     name ltoes
     direction 1.53625e-011 -4.21881e-011 1   
     length 1.26912   
     axis -90 7.62852e-016 20   XYZ
    dof rx
    limits (-90.0 20.0)
  end
  begin
     id 6 
     name rhipjoint
     direction -0.618868 -0.704065 0.348274   
     length 2.42265  
     axis 0 0 0  XYZ 
  end
  begin
     id 7 
     name rfemur
     direction -0.34202 -0.939693 0   
     length 6.73814   
     axis 0 0 -20   XYZ
    dof rx ry rz
    limits (-160.0 20.0)
           (-70.0 70.0)
           (-70.0 60.0)
  end
  begin
     id 8 
     name rtibia
     direction -0.34202 -0.939693 0   
     length 7.66799   
     axis 0 0 -20   XYZ
    dof rx
    limits (-10.0 170.0)
 end
 begin
     id 9 
     name rfoot
     direction -0.0727352 -0.199838 0.977125   
     length 2.57224  
     axis -90 -7.62852e-016 -20   XYZ
    dof rx rz
    limits (-45.0 90.0)
           (-20.0 70.0)
  end
  begin
     id 10 
     name rtoes
     direction -1.53501e-011 -4.21858e-011 1   
     length 1.28858   
     axis -90 -7.62852e-016 -20   XYZ
    dof rx
    limits (-90.0 20.0)
  end
  begin
     id 11 
     name lowerback
     direction -0.0172471 0.995767 -0.0902851   
     length 2.20206   
     axis 0 0 0   XYZ
    dof rx ry rz
    limits (-20.0 45.0)
           (-30.0 30.0)
           (-30.0 30.0)
  end
  begin
     id 12 
     name upperback
     direction -0.000110737 0.999714 0.0239043   
     length 2.19523   
     axis 0 0 0   XYZ
    dof rx ry rz
    limits (-20.0 45.0)
           (-30.0 30.0)
           (-30.0 30.0)
  end
  begin
     id 13 
     name thorax
     direction 0.00704869 0.997783 0.0661741   
     length 2.21977   
     axis 0 0 0   XYZ
    dof rx ry rz
    limits (-20.0 45.0)
           (-30.0 30.0)
           (-30.0 30.0)
  end
  begin
     id 14 
     name lowerneck
     direction -0.00407501 0.995527 0.0943846   
     length 1.83142   
     axis 0 0 0   XYZ
    dof rx ry rz
    limits (-20.0 45.0)
           (-30.0 30.0)
           (-30.0 30.0)
  end
  begin
     id 15 
     name upperneck
     direction 0.0640586 0.986486 -0.150807   
     length 1.84616   
     axis 0 0 0   XYZ
    dof rx ry rz
    limits (-20.0 45.0)
           (-30.0 30.0)
           (-30.0 30.0)
  end
  begin
     id 16
     name head
     direction 0.0188017 0.99791 -0.0618239  
     length 1.85932  
     axis 0 0 0   XYZ
    dof rx ry rz
    limits (-20.0 45.0)
           (-30.0 30.0)
           (-30.0 30.0)
  end
  begin
     id 17 
     name lclavicle
     direction 0.976074 0.206905 0.066852  
     length 3.81043  
     axis 0 0 0   XYZ
    dof ry rz
    limits (-20.0 10.0)
           (0.0 20.0)
  end
  begin
     id 18 
     name lhumerus
     direction 1 -4.48971e-011 1.86916e-027   
     length 5.37587   
     axis 180 -30 -90   XYZ
    dof rx ry rz
    limits (-60.0 90.0)
           (-90.0 90.0)
           (-90.0 90.0)
  end
  begin
     id 19
     name lradius
     direction 1 -4.48968e-011 1.69187e-027   
     length 3.35977   
     axis 180 -30 -90   XYZ
    dof rx
    limits (-10.0 170.0)
  end
  begin
     id 20
     name lwrist
     direction 1 -4.48968e-011 5.8978e-027   
     length 1.67988   
     axis -3.27506e-015 90 90   XYZ
    dof ry
    limits (-180.0 0.0)
 end
  begin
     id 21 
     name lhand
     direction 1 -4.49028e-011 1.18071e-026   
     length 0.561859   
     axis -7.52654e-015 90 90   XYZ
    dof rx rz
    limits (-90.0 90.0)
           (-45.0 45.0)
  end
  begin
     id 22 
     name lfingers
     direction 1 -4.48927e-011 2.35758e-026   
     length 0.452985   
     axis -1.50534e-014 90 90   XYZ
    dof rx
    limits (0.0 90.0)
  end
  begin
     id 23
     name lthumb
     direction 0.707107 -6.34898e-011 0.707107   
     length 0.650399   
     axis -90 45 5.69224e-014   XYZ
    dof rx rz
    limits (-45.0 45.0)
           (-45.0 45.0)
  end
  begin
     id 24 
     name rclavicle
     direction -0.988403 0.151789 0.00439714   
     length 3.6942  
     axis 0 0 0   XYZ 
    dof ry rz
    limits (-10.0 20.0)
           (-20.0 0.0)
  end
  begin
     id 25 
     name rhumerus
     direction -1 -4.48978e-011 1.62495e-027  
     length 5.22819   
     axis 180 30 90   XYZ
    dof rx ry rz
    limits (-90.0 60.0)
           (-90.0 90.0)
           (-90.0 90.0)
  end
  begin
     id 26 
     name rradius
     direction -1 -4.48961e-011 3.47796e-027   
     length 3.40764   
     axis 180 30 90   XYZ
    dof rx
    limits (-10.0 170.0)
  end
  begin
     id 27 
     name rwrist
     direction -1 -4.48949e-011 5.89602e-027   
     length 1.70382   
     axis -3.27506e-015 -90 -90   XYZ
    dof ry
    limits (-180.0 0.0)
  end
  begin
     id 28
     name rhand
     direction -1 -4.48977e-011 1.17973e-026   
     length 0.583255   
     axis -7.52654e-015 -90 -90   XYZ
    dof rx rz
    limits (-90.0 90.0)
           (-45.0 45.0)
  end
  begin
     id 29
     name rfingers
     direction -1 -4.49099e-011 2.36408e-026   
     length 0.470235   
     axis -1.50534e-014 -90 -90   XYZ
    dof rx
    limits (0.0 90.0)
  end
  begin
     id 30
     name rthumb
     direction -0.707107 -6.35011e-011 0.707107   
     length 0.675167   
     axis -90 -45 -5.69224e-014   XYZ
    dof rx rz
    limits (-45.0 45.0)
           (-45.0 45.0)
  end
:hierarchy
  begin
    root lhipjoint rhipjoint lowerback
    lhipjoint lfemur
    lfemur ltibia
    ltibia lfoot
    lfoot ltoes
    rhipjoint rfemur
    rfemur rtibia
    rtibia rfoot
    rfoot rtoes
    lowerback upperback
    upperback thorax
    thorax lowerneck lclavicle rclavicle
    lowerneck upperneck
    upperneck head
    lclavicle lhumerus
    lhumerus lradius
    lradius lwrist
    lwrist lhand lthumb
    lhand lfingers
    rclavicle rhumerus
    rhumerus rradius
    rradius rwrist
    rwrist rhand rthumb
    rhand rfingers
  end

#!OML:ASF G:\JayActor3\Patient Classification 1\Patient 1\Session 2\male.ASF
:FULLY-SPECIFIED
:DEGREES
309
root -20.5853 16.5707 -10.572 -268.751 -73.6798 255.924
lowerback 15.1468 0.936984 -3.65669
upperback 4.99224 0.468029 0.619486
thorax -3.23466 0.106247 2.64333
lowerneck -6.3414 -4.53095 -3.76703
upperneck 10.8454 -7.76449 14.0412
head 5.00041 -3.3299 4.47119
rclavicle -3.77691e-015 -6.04305e-014
rhumerus 10.1437 39.3114 -47.7146
rradius 68.6203
rwrist -27.3284
rhand -14.0257 9.82139
rfingers 7.12502
rthumb 12.1043 -19.8085
lclavicle -3.77691e-015 -6.04305e-014
lhumerus 4.48003 -33.0998 59.7456
lradius 82.1847
lwrist 23.4237
lhand -30.8522 24.8245
lfingers 7.12502
lthumb -4.14044 54.764
rfemur -42.1831 -12.2237 1.32187
rtibia 39.092
rfoot -32.7428 -18.1861
rtoes 18.1192
lfemur -11.6238 12.797 -10.4185
ltibia 38.9168
lfoot -3.36675 -3.84122
ltoes -0.939925
310
root -20.7211 16.76 -10.5938 -268.922 -73.4957 256.154
lowerback 15.1111 0.727086 -3.22585
upperback 5.02604 0.267443 0.902432
thorax -3.16554 0.00454563 2.73235
lowerneck -6.33566 -4.29932 -3.71626
upperneck 11.4798 -7.45598 13.5226
head 5.14054 -3.1782 4.32463
rclavicle 4.57205e-015 2.54444e-014
rhumerus 12.943 39.4677 -44.0503
rradius 69.7001
rwrist -27.7984
rhand -13.5775 9.75837
rfingers 7.12502
rthumb 12.5365 -19.8455
lclavicle 4.57205e-015 2.54444e-014
lhumerus 8.68882 -32.5317 55.0749
lradius 83.3352
lwrist 23.7881
lhand -30.7045 24.4815
lfingers 7.12502
lthumb -3.99781 54.4237
rfemur -43.1513 -11.5562 -0.329342
rtibia 36.6086
rfoot -33.212 -18.7171
rtoes 17.2256
lfemur -9.53546 11.9603 -10.1273
ltibia 35.9982
lfoot -1.74826 -2.835
ltoes -2.17573
311
root -20.8524 16.9623 -10.6136 -269.112 -73.2695 256.426
lowerback 15.1145 0.540622 -2.73589
upperback 5.08466 0.102815 1.2334
thorax -3.09436 -0.0812546 2.83165
lowerneck -6.32191 -4.08325 -3.67403
upperneck 11.9984 -7.15266 13.0321
head 5.24832 -3.03441 4.18783
rclavicle 2.14687e-014 -3.18055e-015
rhumerus 15.8219 39.3992 -40.2008
rradius 70.6673
rwrist -28.2781
rhand -13.115 9.7127
rfingers 7.12502
rthumb 12.9823 -19.8634
lclavicle 2.14687e-014 -3.18055e-015
lhumerus 12.4637 -31.5704 50.4258
lradius 84.3898
lwrist 24.1552
lhand -30.5985 24.1378
lfingers 7.12502
lthumb -3.89546 54.082
rfemur -44.1811 -11.0175 -1.89869
rtibia 34.8008
rfoot -33.7006 -19.2565
rtoes 16.5884
lfemur -7.4515 10.8347 -9.91553
ltibia 32.9282
lfoot 0.214253 -1.32176
ltoes -3.66203
312
root -20.9777 17.1766 -10.6323 -269.414 -73.0055 256.835
lowerback 15.1749 0.375811 -2.19915
upperback 5.16521 -0.0305495 1.61028
thorax -3.03307 -0.153385 2.9474
lowerneck -6.29906 -3.88999 -3.64311
upperneck 12.4037 -6.86667 12.5754
head 5.32515 -2.90334 4.06199
rclavicle -1.98785e-015 2.38542e-014
rhumerus 18.6877 39.0908 -36.2638
rradius 71.4734
rwrist -28.7587
rhand -12.6453 9.68491
rfingers 7.12502
rthumb 13.4351 -19.8618
lclavicle -1.98785e-015 2.38542e-014
lhumerus 15.7508 -30.2648 45.8994
lradius 85.325
lwrist 24.5117
lhand -30.5453 23.816
lfingers 7.12502
lthumb -3.84402 53.7611
rfemur -45.323 -10.7007 -3.3172
rtibia 33.8102
rfoot -34.115 -19.7777
rtoes 16.1522
lfemur -5.42643 9.48962 -9.78661
ltibia 29.7611
lfoot 2.56011 0.704135
ltoes -5.18063
313
root -21.0953 17.4016 -10.6509 -269.906 -72.7056 257.462
lowerback 15.3091 0.228219 -1.62269
upperback 5.26099 -0.139114 2.02598
thorax -2.99691 -0.214798 3.0781
lowerneck -6.25815 -3.72656 -3.62834
upperneck 12.7032 -6.61079 12.1601
head 5.37263 -2.79041 3.94943
rclavicle -7.7526e-015 3.33958e-014
rhumerus 21.4435 38.5547 -32.3548
rradius 72.0739
rwrist -29.2284
rhand -12.1808 9.67371
rfingers 7.12502
rthumb 13.8827 -19.8429
lclavicle -7.7526e-015 3.33958e-014
lhumerus 18.511 -28.6839 41.5709
lradius 86.1198
lwrist 24.8386
lhand -30.541 23.5277
lfingers 7.12502
lthumb -3.83991 53.4729
rfemur -46.6184 -10.6708 -4.51819
rtibia 33.7549
rfoot -34.3514 -20.2174
rtoes 15.8385
lfemur -3.51881 8.0463 -9.72565
ltibia 26.5655
lfoot 5.2953 3.22818
ltoes -6.45351
314
root -21.2046 17.6356 -10.6707 -270.63 -72.3673 258.345
lowerback 15.5291 0.0923812 -1.00285
upperback 5.36578 -0.228225 2.46745
thorax -2.99805 -0.267918 3.20979
lowerneck -6.19015 -3.60002 -3.63129
upperneck 12.9082 -6.3986 11.7929
head 5.39345 -2.70138 3.85171
rclavicle 1.68967e-014 2.22639e-014
rhumerus 24.0042 37.8277 -28.5886
rradius 72.4355
rwrist -29.6707
rhand -11.7409 9.67861
rfingers 7.12502
rthumb 14.3067 -19.8085
lclavicle 1.68967e-014 2.22639e-014
lhumerus 20.7266 -26.9121 37.4833
lradius 86.7561
lwrist 25.1147
lhand -30.5725 23.2709
lfingers 7.12502
lthumb -3.87035 53.2155
rfemur -48.0873 -10.9434 -5.45261
rtibia 34.7021
rfoot -34.333 -20.5116
rtoes 15.5781
lfemur -1.78941 6.66626 -9.70136
ltibia 23.4357
lfoot 8.36093 6.21147
ltoes -7.13509
315
root -21.3056 17.8763 -10.6926 -271.595 -71.9847 259.48
lowerback 15.8398 -0.0370878 -0.327454
upperback 5.47591 -0.301056 2.91768
thorax -3.04256 -0.314159 3.319
lowerneck -6.08908 -3.516 -3.6507
upperneck 13.0268 -6.24152 11.4816
head 5.38963 -2.64087 3.77038
rclavicle -5.36719e-015 6.36111e-015
rhumerus 26.3074 36.9598 -25.0603
rradius 72.5426
rwrist -30.0607
rhand -11.3469 9.70177
rfingers 7.12502
rthumb 14.6863 -19.7581
lclavicle -5.36719e-015 6.36111e-015
lhumerus 22.4075 -25.0411 33.6486
lradius 87.2183
lwrist 25.3272
lhand -30.6284 23.0332
lfingers 7.12502
lthumb -3.92426 52.9768
rfemur -49.7259 -11.4884 -6.09775
rtibia 36.6507
rfoot -34.0379 -20.6242
rtoes 15.3367
lfemur -0.314962 5.52794 -9.67633
ltibia 20.5147
lfoot 11.5963 9.57011
ltoes -6.91589
316
root -21.3992 18.121 -10.7179 -272.781 -71.5518 260.839
lowerback 16.2404 -0.165009 0.414427
upperback 5.58999 -0.359506 3.35983
thorax -3.13093 -0.3544 3.38269
lowerneck -5.95586 -3.4777 -3.68228
upperneck 13.0633 -6.14651 11.231
head 5.36275 -2.61124 3.70577
rclavicle -2.06736e-014 -5.56597e-014
rhumerus 28.3172 36.004 -21.8331
rradius 72.4025
rwrist -30.3693
rhand -11.0174 9.7453
rfingers 7.12502
rthumb 15.0037 -19.6911
lclavicle -2.06736e-014 -5.56597e-014
lhumerus 23.5881 -23.1608 30.0562
lradius 87.4926
lwrist 25.4752
lhand -30.6987 22.8054
lfingers 7.12502
lthumb -3.99216 52.7477
rfemur -51.5131 -12.2549 -6.45218
rtibia 39.5341
rfoot -33.4993 -20.563
rtoes 15.1096
lfemur 0.78832 4.80501 -9.6201
ltibia 18.0358
lfoot 14.7288 13.1255
ltoes -5.64402
317
root -21.4861 18.3666 -10.7475 -274.158 -71.0651 262.385
lowerback 16.7244 -0.29475 1.22474
upperback 5.70767 -0.404351 3.78295
thorax -3.25959 -0.389092 3.38871
lowerneck -5.79912 -3.48607 -3.72381
upperneck 13.0171 -6.11528 11.0414
head 5.31389 -2.61254 3.65753
rclavicle 5.1684e-015 1.59028e-015
rhumerus 30.0216 35.0054 -18.9301
rradius 72.0468
rwrist -30.5719
rhand -10.7637 9.80972
rfingers 7.12502
rthumb 15.2482 -19.6083
lclavicle 5.1684e-015 1.59028e-015
lhumerus 24.3222 -21.3508 26.6861
lradius 87.5664
lwrist 25.5673
lhand -30.7724 22.5844
lfingers 7.12502
lthumb -4.06338 52.5254
rfemur -53.4235 -13.1958 -6.52438
rtibia 43.2403
rfoot -32.7983 -20.3649
rtoes 14.931
lfemur 1.33463 4.65458 -9.51719
ltibia 16.369
lfoot 17.4197 16.5218
ltoes -3.52415
